<?xml version="1.0" encoding="utf-8"?>
<!-- Generator: Adobe Illustrator 22.1.0, SVG Export Plug-In . SVG Version: 6.00 Build 0)  -->
<svg version="1.1" id="Calque_1" xmlns="http://www.w3.org/2000/svg" xmlns:xlink="http://www.w3.org/1999/xlink" x="0px" y="0px"
	 viewBox="0 0 323 250.8" style="enable-background:new 0 0 323 250.8;" xml:space="preserve">
<style type="text/css">
	.st0{fill:#0B0D0A;}
</style>
<g>
	<path class="st0" d="M22.4,126.8c1.1-0.1,1.9-0.2,2.5-0.5c0.6-0.2,1-0.6,1.3-1.1c0.3-0.5,0.5-1.2,0.6-2c0.1-0.8,0.1-1.8,0.1-3.1
		v-14.7c0-1.2,0-2.3-0.1-3.1c-0.1-0.8-0.3-1.5-0.6-2c-0.3-0.5-0.8-0.9-1.4-1.1c-0.6-0.2-1.5-0.4-2.5-0.5v-0.5
		c1.2,0.1,2.4,0.1,3.6,0.1c1.2,0,2.4,0,3.6,0c1,0,1.9,0,2.9,0c1,0,1.9-0.1,2.9-0.1v0.5c-1,0.1-1.8,0.2-2.4,0.5
		c-0.6,0.2-1,0.6-1.3,1.1c-0.3,0.5-0.5,1.2-0.6,2c-0.1,0.8-0.1,1.8-0.1,3.1v14.7c0,1.2,0,2.3,0.1,3.1c0.1,0.8,0.3,1.5,0.6,2
		c0.3,0.5,0.8,0.9,1.4,1.1c0.6,0.2,1.5,0.4,2.6,0.5v0.5c-1.1-0.1-2.2-0.1-3.3-0.1c-1.1,0-2.2,0-3.3,0c-1.1,0-2.2,0-3.2,0
		c-1.1,0-2.1,0.1-3.2,0.1V126.8z"/>
	<path class="st0" d="M38,111.5l6.4-1v2.3c0.8-0.6,1.7-1.2,2.7-1.8c1-0.6,2-0.8,3-0.8c0.8,0,1.6,0.1,2.4,0.3c0.7,0.2,1.4,0.5,2,1
		c0.6,0.5,1.1,1.1,1.4,1.9c0.4,0.8,0.5,1.8,0.5,3v7.8c0,1,0.3,1.6,0.8,1.9c0.5,0.3,1.3,0.6,2.3,0.7v0.5c-0.9-0.1-1.8-0.1-2.7-0.1
		c-1,0-2,0-3,0c-0.7,0-1.3,0-2,0c-0.6,0-1.2,0.1-1.8,0.1v-0.5c0.9-0.2,1.7-0.4,2.2-0.7c0.5-0.3,0.8-0.9,0.8-1.9V117
		c0-1.5-0.3-2.7-0.9-3.5c-0.6-0.8-1.7-1.2-3.1-1.2c-0.5,0-1,0.1-1.5,0.2c-0.5,0.1-1,0.3-1.5,0.6c-0.4,0.2-0.8,0.5-1.1,0.8
		c-0.3,0.3-0.4,0.6-0.4,0.8v9.3c0,1,0.3,1.6,0.8,1.9c0.6,0.3,1.4,0.6,2.5,0.7v0.5c-1-0.1-2-0.1-3-0.1c-1,0-2,0-3,0c-0.7,0-1.3,0-2,0
		c-0.6,0-1.3,0.1-2,0.1v-0.5c1-0.2,1.8-0.4,2.3-0.7c0.5-0.3,0.8-0.9,0.8-1.9v-10.2c0-0.9-0.3-1.4-0.9-1.6c-0.6-0.2-1.3-0.3-2.1-0.3
		V111.5z"/>
	<path class="st0" d="M79.9,126.8c1.1-0.1,1.9-0.2,2.5-0.5c0.6-0.2,1-0.6,1.3-1.1c0.3-0.5,0.5-1.2,0.6-2c0.1-0.8,0.1-1.8,0.1-3.1
		V99.7c-1.6,0-2.9,0.1-3.9,0.2c-1,0.1-1.9,0.4-2.7,0.9c-0.8,0.5-1.4,1.2-2,2.2c-0.6,1-1.1,2.4-1.7,4.1l-0.6-0.2l0.6-8.6
		c1.2,0.1,2.5,0.1,3.7,0.1c1.2,0,2.4,0,3.7,0h10.4c1.2,0,2.3,0,3.5,0c1.1,0,2.3-0.1,3.5-0.1l0.6,8.6l-0.6,0.2
		c-0.6-1.7-1.1-3.1-1.7-4.1c-0.6-1-1.2-1.7-2-2.2c-0.8-0.5-1.7-0.8-2.8-0.9c-1.1-0.1-2.4-0.2-4-0.2v20.4c0,1.2,0,2.3,0.1,3.1
		c0.1,0.8,0.3,1.5,0.6,2c0.3,0.5,0.8,0.9,1.4,1.1c0.6,0.2,1.5,0.4,2.6,0.5v0.5c-1.1-0.1-2.2-0.1-3.3-0.1c-1.1,0-2.2,0-3.3,0
		c-1.1,0-2.2,0-3.2,0c-1.1,0-2.1,0.1-3.2,0.1V126.8z"/>
	<path class="st0" d="M102.6,116.2c0-0.7,0-1.3-0.1-1.9c0-0.5-0.2-1-0.4-1.4c-0.2-0.4-0.6-0.7-1-0.9c-0.4-0.2-1-0.4-1.8-0.5v-0.6
		l6.7-0.4v13c0,0.7,0.1,1.3,0.2,1.7c0.1,0.4,0.3,0.7,0.6,1c0.3,0.2,0.6,0.4,1.1,0.5s1,0.1,1.6,0.2v0.5c-1-0.1-2.1-0.1-3.1-0.1
		c-1,0-2.1,0-3.1,0c-0.7,0-1.3,0-2,0c-0.6,0-1.3,0.1-2,0.1v-0.5c0.6,0,1.1-0.1,1.5-0.2c0.4-0.1,0.7-0.2,1-0.5c0.3-0.2,0.5-0.5,0.6-1
		c0.1-0.4,0.2-1,0.2-1.7V116.2z M103.9,97.5c0.6,0,1.2,0.2,1.7,0.7c0.5,0.5,0.7,1,0.7,1.7c0,0.6-0.2,1.2-0.7,1.7
		c-0.5,0.5-1,0.7-1.7,0.7c-0.6,0-1.2-0.2-1.7-0.7c-0.5-0.5-0.7-1-0.7-1.7c0-0.6,0.2-1.2,0.7-1.7C102.7,97.8,103.2,97.5,103.9,97.5z"
		/>
	<path class="st0" d="M117.4,124.1c0,1,0.3,1.6,0.8,1.9c0.5,0.3,1.3,0.6,2.2,0.7v0.5c-0.9-0.1-1.8-0.1-2.7-0.1c-1,0-1.9,0-2.9,0
		c-0.7,0-1.3,0-2,0c-0.6,0-1.3,0.1-2.1,0.1v-0.5c1.1-0.2,1.9-0.4,2.4-0.7c0.5-0.3,0.8-0.9,0.8-1.9v-9c0-0.7-0.1-1.3-0.2-1.7
		c-0.1-0.4-0.3-0.7-0.5-0.9c-0.2-0.2-0.5-0.4-0.9-0.5c-0.4-0.1-0.9-0.1-1.4-0.2v-0.5l6.4-0.9v2.2c0.9-0.7,1.9-1.3,2.8-1.7
		c0.9-0.5,2-0.7,3.2-0.7c1,0,1.9,0.2,2.7,0.6c0.8,0.4,1.5,1,2.1,1.8c0.4-0.3,0.8-0.5,1.3-0.8c0.5-0.3,1-0.5,1.5-0.8
		c0.5-0.2,1-0.4,1.5-0.6c0.5-0.1,1-0.2,1.5-0.2c1.9,0,3.3,0.5,4.4,1.5c1.1,1,1.6,2.5,1.6,4.6v7.8c0,1,0.3,1.6,0.8,1.9
		c0.5,0.3,1.3,0.6,2.4,0.7v0.5c-0.9-0.1-1.9-0.1-2.9-0.1c-1,0-2,0-3,0c-0.7,0-1.3,0-1.9,0c-0.6,0-1.2,0.1-1.7,0.1v-0.5
		c0.9-0.2,1.5-0.4,2-0.7c0.5-0.3,0.8-0.9,0.8-1.9v-7.4c0-1.4-0.4-2.5-1.1-3.2c-0.7-0.7-1.5-1.1-2.5-1.1c-1.8,0-3.2,0.5-4.3,1.4v10.3
		c0,1,0.3,1.6,0.8,1.9c0.5,0.3,1.3,0.6,2.2,0.7v0.5c-0.9-0.1-1.8-0.1-2.7-0.1c-1,0-1.9,0-2.9,0c-0.7,0-1.3,0-1.9,0
		c-0.6,0-1.2,0.1-1.7,0.1v-0.5c0.9-0.2,1.5-0.4,2-0.7c0.5-0.3,0.8-0.9,0.8-1.9v-7.4c0-1.4-0.2-2.6-0.7-3.4c-0.4-0.8-1.4-1.2-2.9-1.2
		c-0.4,0-0.8,0-1.2,0.1c-0.3,0.1-0.7,0.2-1,0.4c-0.3,0.2-0.7,0.4-1,0.7c-0.3,0.3-0.7,0.6-1.2,1V124.1z"/>
	<path class="st0" d="M149.3,117.9c0,1.5,0.2,2.8,0.6,3.8c0.4,1,0.9,1.8,1.5,2.4c0.6,0.6,1.2,1,1.9,1.2c0.7,0.2,1.3,0.4,1.9,0.4
		c1.2,0,2.3-0.2,3.3-0.6c1-0.4,1.9-1,2.8-1.9l0.7,0.7c-1.2,1.3-2.4,2.3-3.7,3c-1.3,0.7-2.8,1-4.5,1c-1.3,0-2.4-0.2-3.4-0.7
		c-1-0.5-1.9-1.2-2.6-2c-0.7-0.8-1.2-1.8-1.6-2.8c-0.4-1.1-0.6-2.1-0.6-3.3c0-1.1,0.2-2.2,0.6-3.3c0.4-1.1,0.9-2,1.6-2.8
		c0.7-0.8,1.6-1.5,2.6-2c1-0.5,2.1-0.7,3.4-0.7c2.3,0,4.2,0.6,5.6,1.9c1.4,1.3,2.3,3.2,2.6,5.8H149.3z M157.9,116.6
		c-0.1-0.8-0.2-1.5-0.4-2.1c-0.1-0.6-0.4-1.2-0.7-1.6c-0.3-0.4-0.7-0.7-1.3-1c-0.5-0.2-1.2-0.3-2-0.3c-0.6,0-1.2,0.2-1.7,0.5
		c-0.5,0.3-1,0.7-1.3,1.2c-0.4,0.5-0.6,1-0.8,1.6c-0.2,0.6-0.3,1.2-0.3,1.7H157.9z"/>
</g>
<g>
	<g>
		<path class="st0" d="M189.8,206.7c-0.2,0-0.4,0-0.6,0l0.2-3c0.1,0,0.3,0,0.4,0c13.9,0,27.7-3.5,39.9-10
			c13.3-7.2,24.5-17.8,32.3-30.8c7.8-12.9,11.9-27.8,12-43v-0.3c0-15-4-29.7-11.5-42.5c-7.5-12.8-18.3-23.5-31.2-30.8
			c-12.3-7-26.2-10.7-40.4-10.9l0,2.4h0.1v163.5h-3V37.8h1.4l-1.5,0l0.1-5.3l1.4-0.1c0.2,0,0.4,0,0.6,0c15.1,0,29.9,3.9,42.9,11.3
			c13.4,7.6,24.6,18.6,32.3,31.9c7.8,13.3,11.9,28.5,11.9,44v0.3c-0.1,15.7-4.3,31.1-12.4,44.5c-8.1,13.4-19.6,24.5-33.4,31.9
			C218.5,203.1,204.2,206.7,189.8,206.7z"/>
	</g>
	<g>
		<g>
			
				<rect x="230.2" y="189.1" transform="matrix(0.8743 -0.4854 0.4854 0.8743 -66.4786 137.2226)" class="st0" width="3" height="15.6"/>
		</g>
	</g>
	<g>
		<g>
			<rect x="263.5" y="156.7" transform="matrix(0.5102 -0.86 0.86 0.5102 -11.725 308.4934)" class="st0" width="3" height="15.7"/>
		</g>
	</g>
	<g>
		<g>
			<rect x="269.5" y="118.4" class="st0" width="16" height="3"/>
		</g>
	</g>
	<g>
		<g>
			
				<rect x="258" y="73.4" transform="matrix(0.8656 -0.5007 0.5007 0.8656 -1.7559 143.3101)" class="st0" width="16.2" height="3"/>
		</g>
	</g>
	<g>
		<g>
			
				<rect x="224.3" y="40.9" transform="matrix(0.499 -0.8666 0.8666 0.499 80.1455 223.5119)" class="st0" width="18.1" height="3"/>
		</g>
	</g>
	<g>
		<g>
			<rect x="186.8" y="20.8" class="st0" width="4.9" height="200.4"/>
		</g>
	</g>
	<g>
		<polygon class="st0" points="189.3,40.6 189.2,40.6 189.1,35.1 189.3,35.1 		"/>
	</g>
	<g>
		<g>
			<g>
				<g>
					<polygon class="st0" points="220.4,49.9 219.2,49.3 223.4,39.5 224.6,40.1 					"/>
					<path class="st0" d="M220.5,50.2l-1.6-0.8l4.4-10.2l1.6,0.8L220.5,50.2z M219.5,49.2l0.7,0.3l4-9.3l-0.7-0.3L219.5,49.2z"/>
				</g>
			</g>
		</g>
		<g>
			<g>
				<g>
					<polygon class="st0" points="199.8,44 198.5,43.8 199.8,33.3 201.1,33.5 					"/>
					<path class="st0" d="M200,44.3l-1.8-0.3l1.4-11.1l1.8,0.3L200,44.3z M198.8,43.6l0.8,0.1l1.3-10.1l-0.8-0.1L198.8,43.6z"/>
				</g>
			</g>
		</g>
		<g>
			<g>
				<g>
					<polygon class="st0" points="210.8,46.3 209.5,45.9 212.1,35.6 213.3,35.9 					"/>
					<path class="st0" d="M211,46.6l-1.7-0.5l2.7-10.8l1.7,0.5L211,46.6z M209.8,45.7l0.8,0.2l2.4-9.8l-0.8-0.2L209.8,45.7z"/>
				</g>
			</g>
		</g>
	</g>
	<g>
		<g>
			<g>
				<g>
					<polygon class="st0" points="250.6,74.5 249.8,73.4 258.3,67 259.1,68.1 					"/>
					<path class="st0" d="M250.5,74.8l-1-1.5l8.9-6.7l1,1.5L250.5,74.8z M250.2,73.4l0.5,0.6l8.1-6.1l-0.5-0.6L250.2,73.4z"/>
				</g>
			</g>
		</g>
		<g>
			<g>
				<g>
					<polygon class="st0" points="235.6,59.2 234.6,58.3 241,49.9 242,50.7 					"/>
					<path class="st0" d="M235.6,59.5l-1.4-1.1l6.7-8.9l1.4,1.1L235.6,59.5z M234.9,58.3l0.6,0.5l6.1-8.1l-0.6-0.5L234.9,58.3z"/>
				</g>
			</g>
		</g>
		<g>
			<g>
				<g>
					<polygon class="st0" points="244,66.6 243.1,65.6 250.5,57.9 251.4,58.9 					"/>
					<path class="st0" d="M244,66.9l-1.3-1.3l7.7-8.1l1.3,1.3L244,66.9z M243.5,65.6l0.6,0.6l7-7.3l-0.6-0.6L243.5,65.6z"/>
				</g>
			</g>
		</g>
	</g>
	<g>
		<g>
			<g>
				<g>
					<polygon class="st0" points="264.9,113 264.9,111.7 275.5,110.8 275.5,112.1 					"/>
					<path class="st0" d="M264.7,113.2l-0.1-1.8l11.1-1l0.1,1.8L264.7,113.2z M265.1,111.9l0,0.8l10.1-0.9l0-0.8L265.1,111.9z"/>
				</g>
			</g>
		</g>
		<g>
			<g>
				<g>
					<polygon class="st0" points="260.3,92.1 259.9,90.8 269.8,87 270.2,88.3 					"/>
					<path class="st0" d="M260.1,92.4l-0.6-1.7l10.4-4l0.6,1.7L260.1,92.4z M260.2,91l0.3,0.7l9.5-3.6l-0.3-0.7L260.2,91z"/>
				</g>
			</g>
		</g>
		<g>
			<g>
				<g>
					<polygon class="st0" points="263.6,102.8 263.3,101.5 273.6,98.9 273.9,100.2 					"/>
					<path class="st0" d="M263.4,103.1l-0.4-1.8l10.8-2.8l0.4,1.8L263.4,103.1z M263.6,101.7l0.2,0.8l9.8-2.5l-0.2-0.8L263.6,101.7z
						"/>
				</g>
			</g>
		</g>
	</g>
	<g>
		<g>
			<g>
				<g>
					<polygon class="st0" points="258,151 258.6,149.9 268.2,154.5 267.6,155.6 					"/>
					<path class="st0" d="M267.7,156l-10.1-4.8l0.8-1.6l10.1,4.8L267.7,156z M258.4,150.9l9.1,4.4l0.4-0.7l-9.1-4.4L258.4,150.9z"/>
				</g>
			</g>
		</g>
		<g>
			<g>
				<g>
					<polygon class="st0" points="264.6,130.7 264.9,129.4 275.4,131.2 275.1,132.4 					"/>
					<path class="st0" d="M275.3,132.7l-11-1.8l0.4-1.8l11,1.8L275.3,132.7z M264.9,130.5l10,1.7l0.2-0.8l-10-1.7L264.9,130.5z"/>
				</g>
			</g>
		</g>
		<g>
			<g>
				<g>
					<polygon class="st0" points="262,141.6 262.4,140.4 272.6,143.3 272.2,144.5 					"/>
					<path class="st0" d="M272.4,144.9l-10.7-3.1l0.6-1.7l10.7,3.1L272.4,144.9z M262.3,141.4l9.7,2.8l0.2-0.7l-9.7-2.8L262.3,141.4
						z"/>
				</g>
			</g>
		</g>
	</g>
	<g>
		<g>
			<g>
				<g>
					<polygon class="st0" points="234.4,180.5 235.4,179.8 241.8,188.3 240.7,189.1 					"/>
					<path class="st0" d="M240.6,189.4l-6.6-9l1.5-1l6.6,9L240.6,189.4z M234.7,180.6l6,8.2l0.6-0.4l-6-8.2L234.7,180.6z"/>
				</g>
			</g>
		</g>
		<g>
			<g>
				<g>
					<polygon class="st0" points="249.7,165.6 250.6,164.6 259,171.1 258.2,172.1 					"/>
					<path class="st0" d="M258.2,172.4l-8.9-6.8l1.1-1.4l8.9,6.8L258.2,172.4z M250.1,165.6l8,6.2l0.5-0.6l-8-6.2L250.1,165.6z"/>
				</g>
			</g>
		</g>
		<g>
			<g>
				<g>
					<polygon class="st0" points="242.3,174 243.2,173.1 250.9,180.5 250,181.4 					"/>
					<path class="st0" d="M250,181.8l-8-7.8l1.3-1.3l8,7.8L250,181.8z M242.7,174l7.3,7l0.6-0.5l-7.3-7L242.7,174z"/>
				</g>
			</g>
		</g>
	</g>
	<g>
		<g>
			<g>
				<g>
					<polygon class="st0" points="196.7,194.6 198,194.5 199.4,205.1 198.1,205.2 					"/>
					<path class="st0" d="M197.8,205.5l-1.4-11.1l1.8-0.2l1.4,11.1L197.8,205.5z M197,194.9l1.3,10.1l0.8-0.1l-1.3-10.1L197,194.9z"
						/>
				</g>
			</g>
		</g>
		<g>
			<g>
				<g>
					<polygon class="st0" points="217.4,189.2 218.7,188.7 222.8,198.5 221.6,199 					"/>
					<path class="st0" d="M221.5,199.3l-4.4-10.3l1.7-0.7l4.4,10.3L221.5,199.3z M217.8,189.3l4,9.3l0.7-0.3l-4-9.3L217.8,189.3z"/>
				</g>
			</g>
		</g>
		<g>
			<g>
				<g>
					<polygon class="st0" points="206.8,192.9 208.1,192.5 211.1,202.7 209.9,203.1 					"/>
					<path class="st0" d="M209.7,203.4l-3.2-10.7l1.7-0.5l3.2,10.7L209.7,203.4z M207.2,193l2.9,9.7l0.8-0.2l-2.9-9.7L207.2,193z"/>
				</g>
			</g>
		</g>
	</g>
	<g>
		
			<rect x="183.7" y="99.3" transform="matrix(0.8248 -0.5654 0.5654 0.8248 -19.2254 139.5081)" class="st0" width="63.7" height="3"/>
	</g>
	<g>
		
			<rect x="189" y="113.8" transform="matrix(0.9792 -0.2027 0.2027 0.9792 -18.9348 44.7724)" class="st0" width="40.3" height="2"/>
	</g>
	<g>
		<circle class="st0" cx="189.2" cy="117.8" r="7"/>
	</g>
</g>
</svg>
