<svg id="Calque_1" data-name="Calque 1" xmlns="http://www.w3.org/2000/svg" viewBox="0 0 263.25 200.39"><defs><style>.cls-1{fill:#f2f2f2;}</style></defs><title>InTime</title><path class="cls-1" d="M22.36,126.78a8.38,8.38,0,0,0,2.46-.48,2.74,2.74,0,0,0,1.35-1.1,4.41,4.41,0,0,0,.57-2c.07-.81.11-1.83.11-3.06V105.46c0-1.23,0-2.25-.11-3.06a4.41,4.41,0,0,0-.57-2,2.67,2.67,0,0,0-1.39-1.1,9.33,9.33,0,0,0-2.51-.49v-.53c1.23.06,2.43.11,3.59.14s2.36,0,3.59,0c1,0,1.94,0,2.91,0s1.92-.08,2.86-.14v.53a8.59,8.59,0,0,0-2.42.49,2.54,2.54,0,0,0-1.32,1.1,4.55,4.55,0,0,0-.55,2c-.08.81-.11,1.83-.11,3.06v14.72c0,1.23,0,2.25.11,3.06a4.41,4.41,0,0,0,.57,2,2.71,2.71,0,0,0,1.39,1.1,9.09,9.09,0,0,0,2.55.48v.53c-1.11-.06-2.23-.1-3.35-.13s-2.23,0-3.34,0-2.16,0-3.22,0-2.12.07-3.17.13Z" transform="translate(-22.27 -20.81)"/><path class="cls-1" d="M38,111.45l6.43-1v2.34a19.31,19.31,0,0,1,2.74-1.76,6.15,6.15,0,0,1,2.95-.84,8.66,8.66,0,0,1,2.35.31,5.45,5.45,0,0,1,2,1,4.86,4.86,0,0,1,1.41,1.9,7.27,7.27,0,0,1,.53,3v7.75a2,2,0,0,0,.79,1.92,6.94,6.94,0,0,0,2.29.72v.53c-.85-.06-1.76-.1-2.73-.13s-2,0-3,0c-.68,0-1.33,0-2,0s-1.24.07-1.83.13v-.53a6.52,6.52,0,0,0,2.18-.72,2.08,2.08,0,0,0,.77-1.92v-7.09a5.61,5.61,0,0,0-1-3.48A3.62,3.62,0,0,0,49,112.33a6,6,0,0,0-1.54.22,6.49,6.49,0,0,0-1.45.6,5.49,5.49,0,0,0-1.11.81,1.28,1.28,0,0,0-.44.84v9.34a2,2,0,0,0,.84,1.92,7.84,7.84,0,0,0,2.51.72v.53c-1-.06-2-.1-3-.13s-2,0-3,0c-.67,0-1.33,0-2,0s-1.28.07-2,.13v-.53a6.86,6.86,0,0,0,2.29-.72,2,2,0,0,0,.8-1.92V113.92c0-.88-.3-1.42-.91-1.63A6.34,6.34,0,0,0,38,112Z" transform="translate(-22.27 -20.81)"/><path class="cls-1" d="M79.85,126.78a8.46,8.46,0,0,0,2.47-.48,2.72,2.72,0,0,0,1.34-1.1,4.41,4.41,0,0,0,.57-2c.08-.81.11-1.83.11-3.06V99.73a34.93,34.93,0,0,0-3.89.18,6.35,6.35,0,0,0-2.71.9,6.2,6.2,0,0,0-2,2.23,21.59,21.59,0,0,0-1.69,4.1l-.58-.18.62-8.64c1.23.06,2.45.11,3.66.14s2.42,0,3.65,0H91.75c1.17,0,2.33,0,3.48,0s2.3-.08,3.48-.14l.61,8.64-.57.18a21.53,21.53,0,0,0-1.7-4.1,6.27,6.27,0,0,0-2-2.23,6.43,6.43,0,0,0-2.75-.9,36.91,36.91,0,0,0-4-.18v20.45c0,1.23,0,2.25.11,3.06a4.41,4.41,0,0,0,.57,2,2.71,2.71,0,0,0,1.39,1.1,9.18,9.18,0,0,0,2.56.48v.53c-1.12-.06-2.24-.1-3.35-.13s-2.24,0-3.35,0-2.16,0-3.22,0-2.11.07-3.17.13Z" transform="translate(-22.27 -20.81)"/><path class="cls-1" d="M102.58,116.17c0-.71,0-1.33-.06-1.88a3.2,3.2,0,0,0-.4-1.36,2.42,2.42,0,0,0-1-.9,5.05,5.05,0,0,0-1.81-.49v-.62l6.7-.44v13a6.72,6.72,0,0,0,.18,1.74,1.77,1.77,0,0,0,.59,1,2.54,2.54,0,0,0,1.08.46,9.73,9.73,0,0,0,1.63.17v.53c-1-.06-2.06-.1-3.1-.13s-2.08,0-3.11,0c-.68,0-1.34,0-2,0s-1.31.07-2,.13v-.53a8.41,8.41,0,0,0,1.5-.17,2.3,2.3,0,0,0,1-.46,1.88,1.88,0,0,0,.58-1,7.26,7.26,0,0,0,.17-1.74Zm1.28-18.64a2.15,2.15,0,0,1,1.65.73,2.43,2.43,0,0,1,0,3.39,2.23,2.23,0,0,1-3.3,0,2.45,2.45,0,0,1,0-3.39A2.17,2.17,0,0,1,103.86,97.53Z" transform="translate(-22.27 -20.81)"/><path class="cls-1" d="M117.39,124.14a2,2,0,0,0,.79,1.92,6.91,6.91,0,0,0,2.25.72v.53c-.86-.06-1.76-.1-2.71-.13s-1.93,0-2.93,0c-.68,0-1.34,0-2,0s-1.34.07-2.08.13v-.53a7.45,7.45,0,0,0,2.41-.72,2,2,0,0,0,.81-1.92v-9a7.37,7.37,0,0,0-.15-1.67,1.74,1.74,0,0,0-1.44-1.41,8.13,8.13,0,0,0-1.41-.18v-.53l6.44-.88v2.21a22.66,22.66,0,0,1,2.79-1.74,6.85,6.85,0,0,1,3.24-.73,5.73,5.73,0,0,1,2.71.62,7,7,0,0,1,2.14,1.8c.38-.26.81-.53,1.28-.81s.95-.55,1.45-.8a9.58,9.58,0,0,1,1.54-.59,5.62,5.62,0,0,1,1.54-.22A5.42,5.42,0,0,1,140,116.3v7.84a2,2,0,0,0,.82,1.92,7.3,7.3,0,0,0,2.4.72v.53c-.94-.06-1.9-.1-2.87-.13s-1.95,0-2.95,0c-.67,0-1.32,0-1.94,0s-1.19.07-1.71.13v-.53a6.35,6.35,0,0,0,2-.72,2.06,2.06,0,0,0,.78-1.92v-7.4a4.4,4.4,0,0,0-1.08-3.24,3.42,3.42,0,0,0-2.49-1.08,6.38,6.38,0,0,0-4.32,1.41v10.31a2,2,0,0,0,.79,1.92,6.91,6.91,0,0,0,2.25.72v.53c-.85-.06-1.76-.1-2.71-.13s-1.93,0-2.93,0c-.68,0-1.32,0-1.94,0s-1.19.07-1.72.13v-.53a6.42,6.42,0,0,0,2-.72,2.06,2.06,0,0,0,.77-1.92v-7.4a7.12,7.12,0,0,0-.66-3.37c-.44-.81-1.41-1.21-2.91-1.21a5,5,0,0,0-1.16.11,3.72,3.72,0,0,0-1,.37,6.43,6.43,0,0,0-1,.69c-.33.27-.72.62-1.16,1Z" transform="translate(-22.27 -20.81)"/><path class="cls-1" d="M149.28,117.89a10.22,10.22,0,0,0,.6,3.78,6.49,6.49,0,0,0,1.5,2.38,5.17,5.17,0,0,0,1.93,1.24,6.12,6.12,0,0,0,1.92.35,9,9,0,0,0,3.35-.6,8.08,8.08,0,0,0,2.77-1.87l.75.71a14.4,14.4,0,0,1-3.7,3,9.53,9.53,0,0,1-4.53,1,7.49,7.49,0,0,1-3.4-.75,8,8,0,0,1-2.55-2,8.56,8.56,0,0,1-1.61-2.82,9.94,9.94,0,0,1,0-6.52,8.56,8.56,0,0,1,1.61-2.82,8,8,0,0,1,2.55-2,7.49,7.49,0,0,1,3.4-.75,8.07,8.07,0,0,1,5.59,1.89,8.94,8.94,0,0,1,2.6,5.78Zm8.59-1.33a16.32,16.32,0,0,0-.35-2.13,4.29,4.29,0,0,0-.7-1.59,3.12,3.12,0,0,0-1.28-1,5.35,5.35,0,0,0-2-.33,3.2,3.2,0,0,0-1.69.46,4.73,4.73,0,0,0-1.33,1.19,5.57,5.57,0,0,0-.83,1.63,5.87,5.87,0,0,0-.29,1.74Z" transform="translate(-22.27 -20.81)"/><path class="cls-1" d="M189.77,206.67a5.91,5.91,0,0,1-.6,0l.19-3h.41a84.06,84.06,0,0,0,84.1-83.79v-.31a84.06,84.06,0,0,0-83.13-84.11l0,2.37h.07V201.3h-3V37.83h1.42l-1.49,0,.09-5.25,1.39-.08h.59a87.08,87.08,0,0,1,87.1,87.11v.32a87.05,87.05,0,0,1-87.1,86.78Z" transform="translate(-22.27 -20.81)"/><rect class="cls-1" x="230.17" y="189.15" width="3" height="15.6" transform="translate(-88.75 116.42) rotate(-29.04)"/><rect class="cls-1" x="263.49" y="156.71" width="3" height="15.66" transform="translate(-33.99 287.69) rotate(-59.32)"/><rect class="cls-1" x="247.25" y="97.58" width="16" height="3"/><rect class="cls-1" x="258" y="73.43" width="16.23" height="3" transform="translate(-24.03 122.5) rotate(-30.05)"/><rect class="cls-1" x="224.34" y="40.94" width="18.1" height="3" transform="translate(57.88 202.7) rotate(-60.06)"/><rect class="cls-1" x="164.53" width="4.93" height="200.39"/><polygon class="cls-1" points="167 19.75 166.93 19.75 166.87 14.29 167 14.29 167 19.75"/><polygon class="cls-1" points="198.09 29.05 196.91 28.5 201.15 18.73 202.32 19.28 198.09 29.05"/><path class="cls-1" d="M220.49,50.2l-1.64-.77,4.44-10.24,1.63.77Zm-1-1,.72.34,4-9.31-.72-.33Z" transform="translate(-22.27 -20.81)"/><polygon class="cls-1" points="177.49 23.23 176.21 23.03 177.57 12.46 178.85 12.67 177.49 23.23"/><path class="cls-1" d="M200,44.34l-1.79-.29L199.62,33l1.78.28Zm-1.22-.72.78.13,1.29-10.06-.77-.12Z" transform="translate(-22.27 -20.81)"/><polygon class="cls-1" points="188.5 25.45 187.25 25.1 189.81 14.76 191.06 15.11 188.5 25.45"/><path class="cls-1" d="M211,46.57l-1.74-.48,2.68-10.84,1.74.49Zm-1.13-.84.76.21L213,36.1l-.76-.22Z" transform="translate(-22.27 -20.81)"/><polygon class="cls-1" points="228.29 53.65 227.54 52.58 236.07 46.2 236.82 47.27 228.29 53.65"/><path class="cls-1" d="M250.5,74.81l-1-1.48,8.94-6.68,1,1.48Zm-.34-1.36.45.64L258.74,68l-.45-.65Z" transform="translate(-22.27 -20.81)"/><polygon class="cls-1" points="213.3 38.36 212.29 37.54 218.73 29.05 219.74 29.87 213.3 38.36"/><path class="cls-1" d="M235.62,59.53l-1.41-1.14L241,49.5l1.41,1.13Zm-.7-1.22.61.49,6.12-8.08-.61-.5Z" transform="translate(-22.27 -20.81)"/><polygon class="cls-1" points="221.76 45.76 220.85 44.83 228.21 37.13 229.12 38.05 221.76 45.76"/><path class="cls-1" d="M244,66.93l-1.27-1.29,7.71-8.07,1.27,1.29Zm-.56-1.3.55.57,7-7.34-.55-.56Z" transform="translate(-22.27 -20.81)"/><polygon class="cls-1" points="242.66 92.16 242.59 90.86 253.21 89.95 253.28 91.25 242.66 92.16"/><path class="cls-1" d="M264.69,113.24l-.1-1.81,11.13-1,.1,1.81Zm.44-1.34,0,.79,10.11-.87,0-.78Z" transform="translate(-22.27 -20.81)"/><polygon class="cls-1" points="238.02 71.26 237.59 70.03 247.54 66.22 247.97 67.45 238.02 71.26"/><path class="cls-1" d="M260.13,92.4l-.59-1.71,10.42-4,.6,1.71Zm.05-1.41.26.75,9.47-3.63-.26-.75Z" transform="translate(-22.27 -20.81)"/><polygon class="cls-1" points="241.29 82.01 241 80.74 251.32 78.09 251.6 79.35 241.29 82.01"/><path class="cls-1" d="M263.37,103.13l-.4-1.77,10.81-2.78.4,1.77Zm.21-1.4.17.77,9.82-2.52-.17-.77Z" transform="translate(-22.27 -20.81)"/><polygon class="cls-1" points="235.74 130.24 236.34 129.09 245.95 133.69 245.35 134.84 235.74 130.24"/><path class="cls-1" d="M267.73,156l-10.06-4.83.83-1.6,10.06,4.82Zm-9.37-5.06,9.15,4.38.36-.7-9.15-4.38Z" transform="translate(-22.27 -20.81)"/><polygon class="cls-1" points="242.34 109.88 242.59 108.6 253.1 110.37 252.85 111.64 242.34 109.88"/><path class="cls-1" d="M275.32,132.74l-11-1.85.35-1.77,11,1.85Zm-10.41-2.27,10,1.68.16-.77-10-1.68Z" transform="translate(-22.27 -20.81)"/><polygon class="cls-1" points="239.71 120.8 240.1 119.56 250.34 122.51 249.94 123.74 239.71 120.8"/><path class="cls-1" d="M272.38,144.86l-10.73-3.09.56-1.72,10.72,3.09Zm-10.08-3.43,9.75,2.81.24-.75-9.75-2.81Z" transform="translate(-22.27 -20.81)"/><polygon class="cls-1" points="212.1 159.71 213.17 158.97 219.5 167.53 218.44 168.27 212.1 159.71"/><path class="cls-1" d="M240.65,189.43l-6.64-9,1.49-1,6.63,9Zm-5.91-8.86,6,8.16.65-.45-6-8.15Z" transform="translate(-22.27 -20.81)"/><polygon class="cls-1" points="227.47 144.81 228.29 143.8 236.75 150.28 235.93 151.28 227.47 144.81"/><path class="cls-1" d="M258.24,172.44l-8.86-6.78,1.14-1.41,8.86,6.79Zm-8.13-6.87,8.05,6.17.49-.61-8-6.17Z" transform="translate(-22.27 -20.81)"/><polygon class="cls-1" points="220.03 153.22 220.96 152.31 228.62 159.71 227.69 160.62 220.03 153.22"/><path class="cls-1" d="M250,181.78l-8-7.75,1.3-1.27,8,7.76ZM242.67,174l7.29,7,.57-.55-7.3-7Z" transform="translate(-22.27 -20.81)"/><polygon class="cls-1" points="174.47 173.82 175.77 173.7 177.08 184.27 175.79 184.39 174.47 173.82"/><path class="cls-1" d="M197.84,205.47l-1.38-11.08,1.8-.16,1.38,11.07ZM197,194.85l1.25,10.07.79-.07-1.26-10.07Z" transform="translate(-22.27 -20.81)"/><polygon class="cls-1" points="195.18 168.37 196.38 167.9 200.57 177.69 199.37 178.16 195.18 168.37"/><path class="cls-1" d="M221.5,199.3,217.11,189l1.68-.67,4.39,10.27Zm-3.72-10,4,9.32.74-.29-4-9.32Z" transform="translate(-22.27 -20.81)"/><polygon class="cls-1" points="184.56 172.05 185.82 171.72 188.87 181.92 187.61 182.26 184.56 172.05"/><path class="cls-1" d="M209.71,203.38l-3.2-10.7,1.75-.47,3.2,10.7ZM207.15,193l2.91,9.71.76-.2-2.91-9.72Z" transform="translate(-22.27 -20.81)"/><rect class="cls-1" x="183.69" y="99.28" width="63.66" height="3" transform="translate(-41.49 118.7) rotate(-34.43)"/><rect class="cls-1" x="188.98" y="113.84" width="40.31" height="2" transform="translate(-41.2 23.97) rotate(-11.69)"/><circle class="cls-1" cx="166.9" cy="97" r="7.05"/></svg>